<svg xmlns="http://www.w3.org/2000/svg" xmlns:xlink="http://www.w3.org/1999/xlink" width="1080" zoomAndPan="magnify" viewBox="0 0 810 809.999993" height="1080" preserveAspectRatio="xMidYMid meet" version="1.0"><path fill="#000000" d="M 405 441.449219 C 384.902344 441.449219 368.550781 425.097656 368.550781 405 C 368.550781 384.902344 384.902344 368.550781 405 368.550781 C 425.097656 368.550781 441.449219 384.902344 441.449219 405 C 441.449219 425.097656 425.097656 441.449219 405 441.449219 Z M 405 371.585938 C 386.578125 371.585938 371.585938 386.578125 371.585938 405 C 371.585938 423.421875 386.578125 438.414062 405 438.414062 C 423.421875 438.414062 438.414062 423.421875 438.414062 405 C 438.414062 386.578125 423.421875 371.585938 405 371.585938 Z M 405 371.585938 " fill-opacity="1" fill-rule="nonzero"/><path fill="#000000" d="M 415.539062 426.269531 C 412.453125 426.269531 409.28125 425.449219 406.742188 424.65625 C 401.757812 423.097656 397.148438 420.304688 393.421875 416.578125 C 388.410156 411.566406 384.988281 404.871094 384.042969 398.214844 C 383.617188 395.226562 383.367188 391.402344 385.238281 388.351562 C 386.988281 385.503906 390.148438 383.738281 393.496094 383.738281 C 394.078125 383.738281 394.640625 383.800781 395.1875 383.890625 C 395.214844 383.898438 395.242188 383.902344 395.269531 383.910156 C 397.152344 384.257812 398.644531 385.875 398.910156 387.851562 L 400.179688 397.34375 C 400.445312 399.347656 399.382812 401.332031 397.589844 402.167969 C 397.390625 402.257812 397.191406 402.34375 396.984375 402.425781 C 398.042969 404.746094 399.5 406.835938 401.328125 408.664062 C 403.15625 410.496094 405.25 411.953125 407.574219 413.011719 C 407.648438 412.808594 407.738281 412.605469 407.824219 412.410156 C 408.664062 410.613281 410.648438 409.542969 412.65625 409.820312 L 422.148438 411.089844 C 424.140625 411.355469 425.765625 412.875 426.097656 414.78125 C 426.199219 415.347656 426.261719 415.917969 426.261719 416.503906 C 426.261719 419.660156 424.722656 422.625 422.140625 424.433594 C 420.210938 425.789062 417.902344 426.269531 415.539062 426.269531 Z M 393.496094 386.773438 C 391.199219 386.773438 389.027344 387.988281 387.824219 389.941406 C 386.460938 392.164062 386.691406 395.300781 387.046875 397.785156 C 387.90625 403.804688 391.007812 409.871094 395.570312 414.429688 C 398.949219 417.808594 403.125 420.34375 407.648438 421.753906 C 413.71875 423.644531 417.886719 423.710938 420.398438 421.945312 C 422.140625 420.726562 423.226562 418.636719 423.226562 416.503906 C 423.226562 416.085938 423.171875 415.691406 423.109375 415.3125 C 423 414.679688 422.441406 414.1875 421.75 414.097656 L 412.257812 412.824219 C 411.5625 412.75 410.867188 413.082031 410.589844 413.683594 C 410.351562 414.191406 410.183594 414.746094 410.078125 415.324219 C 410 415.765625 409.730469 416.152344 409.339844 416.378906 C 408.953125 416.601562 408.480469 416.644531 408.0625 416.488281 C 404.707031 415.253906 401.726562 413.34375 399.191406 410.808594 C 396.660156 408.28125 394.75 405.292969 393.515625 401.9375 C 393.359375 401.515625 393.398438 401.046875 393.625 400.65625 C 393.847656 400.269531 394.234375 399.996094 394.679688 399.921875 C 395.253906 399.820312 395.808594 399.648438 396.316406 399.410156 C 396.917969 399.132812 397.273438 398.449219 397.179688 397.742188 L 395.898438 388.25 C 395.808594 387.554688 395.3125 386.996094 394.699219 386.894531 C 394.597656 386.871094 394.492188 386.84375 394.394531 386.804688 C 394.304688 386.828125 393.90625 386.773438 393.496094 386.773438 Z M 393.496094 386.773438 " fill-opacity="1" fill-rule="nonzero"/></svg>