<svg xmlns="http://www.w3.org/2000/svg" xmlns:xlink="http://www.w3.org/1999/xlink" width="1080" zoomAndPan="magnify" viewBox="0 0 810 809.999993" height="1080" preserveAspectRatio="xMidYMid meet" version="1.0"><path fill="#ffffff" d="M 382.628906 421.339844 L 427.371094 421.339844 L 427.371094 388.660156 L 382.628906 388.660156 Z M 385.140625 418.824219 L 385.140625 392.5625 L 405 406.539062 L 424.859375 392.5625 L 424.859375 418.824219 Z M 387.535156 391.175781 L 422.464844 391.175781 L 405 403.460938 Z M 387.535156 391.175781 " fill-opacity="1" fill-rule="nonzero"/><path fill="#ffffff" d="M 405 368.550781 C 404.402344 368.550781 403.808594 368.566406 403.210938 368.59375 C 402.617188 368.621094 402.019531 368.667969 401.425781 368.726562 C 400.832031 368.785156 400.242188 368.855469 399.652344 368.945312 C 399.0625 369.03125 398.472656 369.132812 397.890625 369.25 C 397.304688 369.367188 396.722656 369.496094 396.144531 369.640625 C 395.566406 369.789062 394.988281 369.945312 394.417969 370.121094 C 393.847656 370.292969 393.28125 370.480469 392.71875 370.679688 C 392.160156 370.882812 391.601562 371.097656 391.050781 371.324219 C 390.5 371.554688 389.953125 371.796875 389.414062 372.050781 C 388.875 372.304688 388.34375 372.574219 387.816406 372.855469 C 387.292969 373.136719 386.773438 373.429688 386.261719 373.734375 C 385.75 374.042969 385.246094 374.363281 384.75 374.691406 C 384.253906 375.023438 383.765625 375.367188 383.285156 375.722656 C 382.808594 376.078125 382.335938 376.445312 381.875 376.824219 C 381.414062 377.203125 380.964844 377.589844 380.523438 377.992188 C 380.078125 378.394531 379.648438 378.804688 379.226562 379.226562 C 378.804688 379.648438 378.394531 380.078125 377.992188 380.523438 C 377.589844 380.964844 377.203125 381.414062 376.824219 381.875 C 376.445312 382.335938 376.078125 382.808594 375.722656 383.285156 C 375.367188 383.765625 375.023438 384.253906 374.691406 384.75 C 374.359375 385.246094 374.042969 385.75 373.734375 386.261719 C 373.429688 386.773438 373.136719 387.292969 372.855469 387.816406 C 372.574219 388.34375 372.304688 388.875 372.050781 389.414062 C 371.792969 389.953125 371.554688 390.5 371.324219 391.050781 C 371.097656 391.601562 370.882812 392.160156 370.679688 392.71875 C 370.480469 393.28125 370.292969 393.847656 370.121094 394.417969 C 369.945312 394.988281 369.789062 395.566406 369.640625 396.144531 C 369.496094 396.722656 369.367188 397.304688 369.25 397.890625 C 369.132812 398.472656 369.03125 399.0625 368.945312 399.652344 C 368.855469 400.242188 368.785156 400.835938 368.726562 401.425781 C 368.667969 402.019531 368.621094 402.617188 368.59375 403.210938 C 368.566406 403.808594 368.550781 404.402344 368.550781 405 C 368.550781 405.597656 368.566406 406.191406 368.59375 406.789062 C 368.621094 407.382812 368.667969 407.980469 368.726562 408.574219 C 368.785156 409.167969 368.855469 409.757812 368.945312 410.347656 C 369.03125 410.9375 369.132812 411.527344 369.25 412.109375 C 369.367188 412.695312 369.496094 413.277344 369.640625 413.855469 C 369.789062 414.433594 369.945312 415.011719 370.121094 415.582031 C 370.292969 416.152344 370.480469 416.71875 370.679688 417.277344 C 370.882812 417.839844 371.097656 418.398438 371.324219 418.949219 C 371.554688 419.5 371.792969 420.046875 372.050781 420.585938 C 372.304688 421.125 372.574219 421.65625 372.855469 422.183594 C 373.136719 422.707031 373.429688 423.226562 373.734375 423.738281 C 374.042969 424.25 374.359375 424.753906 374.691406 425.25 C 375.023438 425.746094 375.367188 426.234375 375.722656 426.714844 C 376.078125 427.191406 376.445312 427.664062 376.824219 428.125 C 377.203125 428.585938 377.589844 429.035156 377.992188 429.476562 C 378.394531 429.921875 378.804688 430.351562 379.226562 430.773438 C 379.648438 431.195312 380.078125 431.605469 380.523438 432.007812 C 380.964844 432.40625 381.414062 432.796875 381.875 433.175781 C 382.335938 433.554688 382.808594 433.921875 383.285156 434.277344 C 383.765625 434.632812 384.253906 434.976562 384.75 435.308594 C 385.246094 435.640625 385.75 435.957031 386.261719 436.265625 C 386.773438 436.570312 387.292969 436.863281 387.816406 437.144531 C 388.34375 437.425781 388.875 437.695312 389.414062 437.949219 C 389.953125 438.207031 390.5 438.445312 391.050781 438.675781 C 391.601562 438.902344 392.160156 439.117188 392.71875 439.320312 C 393.28125 439.519531 393.847656 439.707031 394.417969 439.878906 C 394.988281 440.054688 395.566406 440.210938 396.144531 440.359375 C 396.722656 440.503906 397.304688 440.632812 397.890625 440.75 C 398.472656 440.867188 399.0625 440.96875 399.652344 441.054688 C 400.242188 441.144531 400.832031 441.214844 401.425781 441.273438 C 402.019531 441.332031 402.617188 441.378906 403.210938 441.40625 C 403.808594 441.433594 404.402344 441.449219 405 441.449219 C 405.597656 441.449219 406.191406 441.433594 406.789062 441.40625 C 407.382812 441.378906 407.980469 441.332031 408.574219 441.273438 C 409.164062 441.214844 409.757812 441.144531 410.347656 441.054688 C 410.9375 440.96875 411.527344 440.867188 412.109375 440.75 C 412.695312 440.632812 413.277344 440.503906 413.855469 440.359375 C 414.433594 440.210938 415.011719 440.054688 415.582031 439.878906 C 416.152344 439.707031 416.71875 439.519531 417.277344 439.320312 C 417.839844 439.117188 418.398438 438.902344 418.949219 438.675781 C 419.5 438.445312 420.046875 438.207031 420.585938 437.949219 C 421.125 437.695312 421.65625 437.425781 422.183594 437.144531 C 422.707031 436.863281 423.226562 436.570312 423.738281 436.265625 C 424.25 435.957031 424.753906 435.640625 425.25 435.308594 C 425.746094 434.976562 426.234375 434.632812 426.714844 434.277344 C 427.191406 433.921875 427.664062 433.554688 428.125 433.175781 C 428.585938 432.796875 429.035156 432.40625 429.476562 432.007812 C 429.921875 431.605469 430.351562 431.195312 430.773438 430.773438 C 431.195312 430.351562 431.605469 429.921875 432.007812 429.476562 C 432.410156 429.035156 432.796875 428.585938 433.175781 428.125 C 433.554688 427.664062 433.921875 427.191406 434.277344 426.714844 C 434.632812 426.234375 434.976562 425.746094 435.308594 425.25 C 435.636719 424.753906 435.957031 424.25 436.265625 423.738281 C 436.570312 423.226562 436.863281 422.707031 437.144531 422.183594 C 437.425781 421.65625 437.695312 421.125 437.949219 420.585938 C 438.203125 420.046875 438.445312 419.5 438.675781 418.949219 C 438.902344 418.398438 439.117188 417.839844 439.320312 417.277344 C 439.519531 416.71875 439.707031 416.152344 439.878906 415.582031 C 440.054688 415.011719 440.210938 414.433594 440.359375 413.855469 C 440.503906 413.277344 440.632812 412.695312 440.75 412.109375 C 440.867188 411.527344 440.96875 410.9375 441.054688 410.347656 C 441.144531 409.757812 441.214844 409.167969 441.273438 408.574219 C 441.332031 407.980469 441.378906 407.382812 441.40625 406.789062 C 441.433594 406.191406 441.449219 405.597656 441.449219 405 C 441.449219 404.402344 441.433594 403.808594 441.402344 403.210938 C 441.375 402.617188 441.328125 402.023438 441.269531 401.429688 C 441.210938 400.835938 441.136719 400.242188 441.050781 399.652344 C 440.960938 399.0625 440.859375 398.476562 440.742188 397.890625 C 440.625 397.308594 440.496094 396.726562 440.347656 396.148438 C 440.203125 395.570312 440.042969 394.996094 439.871094 394.425781 C 439.699219 393.851562 439.511719 393.285156 439.308594 392.726562 C 439.109375 392.164062 438.894531 391.609375 438.664062 391.058594 C 438.4375 390.507812 438.195312 389.960938 437.9375 389.421875 C 437.683594 388.882812 437.414062 388.351562 437.132812 387.828125 C 436.851562 387.300781 436.558594 386.78125 436.25 386.269531 C 435.945312 385.757812 435.625 385.253906 435.292969 384.757812 C 434.960938 384.261719 434.617188 383.777344 434.265625 383.296875 C 433.910156 382.816406 433.542969 382.347656 433.164062 381.886719 C 432.785156 381.425781 432.394531 380.976562 431.996094 380.53125 C 431.59375 380.09375 431.183594 379.660156 430.761719 379.238281 C 430.339844 378.816406 429.90625 378.40625 429.46875 378.003906 C 429.023438 377.605469 428.574219 377.214844 428.113281 376.835938 C 427.652344 376.457031 427.183594 376.089844 426.703125 375.734375 C 426.222656 375.382812 425.738281 375.039062 425.242188 374.707031 C 424.746094 374.375 424.242188 374.054688 423.730469 373.75 C 423.21875 373.441406 422.699219 373.148438 422.171875 372.867188 C 421.648438 372.585938 421.117188 372.316406 420.578125 372.0625 C 420.039062 371.804688 419.492188 371.5625 418.941406 371.335938 C 418.390625 371.105469 417.835938 370.890625 417.273438 370.691406 C 416.714844 370.488281 416.148438 370.300781 415.574219 370.128906 C 415.003906 369.957031 414.429688 369.796875 413.851562 369.652344 C 413.273438 369.503906 412.691406 369.375 412.109375 369.257812 C 411.523438 369.140625 410.9375 369.039062 410.347656 368.949219 C 409.757812 368.863281 409.164062 368.789062 408.570312 368.730469 C 407.976562 368.671875 407.382812 368.625 406.789062 368.597656 C 406.191406 368.566406 405.597656 368.550781 405 368.550781 Z M 405 438.9375 C 404.445312 438.9375 403.890625 438.921875 403.335938 438.894531 C 402.78125 438.867188 402.226562 438.828125 401.671875 438.773438 C 401.121094 438.71875 400.570312 438.652344 400.019531 438.570312 C 399.472656 438.488281 398.925781 438.390625 398.378906 438.285156 C 397.835938 438.175781 397.292969 438.054688 396.753906 437.917969 C 396.214844 437.785156 395.679688 437.636719 395.148438 437.476562 C 394.617188 437.3125 394.089844 437.140625 393.566406 436.953125 C 393.042969 436.765625 392.527344 436.566406 392.011719 436.351562 C 391.5 436.140625 390.992188 435.914062 390.488281 435.679688 C 389.988281 435.441406 389.492188 435.191406 389.003906 434.929688 C 388.511719 434.667969 388.03125 434.394531 387.554688 434.109375 C 387.078125 433.824219 386.609375 433.527344 386.144531 433.21875 C 385.683594 432.90625 385.230469 432.589844 384.785156 432.257812 C 384.335938 431.925781 383.898438 431.585938 383.472656 431.234375 C 383.042969 430.878906 382.621094 430.519531 382.210938 430.144531 C 381.796875 429.773438 381.394531 429.390625 381.003906 428.996094 C 380.609375 428.605469 380.226562 428.203125 379.855469 427.789062 C 379.480469 427.378906 379.121094 426.957031 378.765625 426.527344 C 378.414062 426.101562 378.074219 425.664062 377.742188 425.214844 C 377.410156 424.769531 377.089844 424.316406 376.78125 423.855469 C 376.472656 423.390625 376.175781 422.921875 375.890625 422.445312 C 375.605469 421.96875 375.332031 421.488281 375.070312 420.996094 C 374.808594 420.507812 374.558594 420.011719 374.320312 419.511719 C 374.085938 419.007812 373.859375 418.5 373.648438 417.988281 C 373.433594 417.472656 373.234375 416.957031 373.046875 416.433594 C 372.859375 415.910156 372.6875 415.382812 372.523438 414.851562 C 372.363281 414.320312 372.214844 413.785156 372.082031 413.246094 C 371.945312 412.707031 371.824219 412.164062 371.714844 411.621094 C 371.609375 411.074219 371.511719 410.527344 371.429688 409.980469 C 371.347656 409.429688 371.28125 408.878906 371.226562 408.328125 C 371.171875 407.773438 371.132812 407.21875 371.105469 406.664062 C 371.078125 406.109375 371.0625 405.554688 371.0625 405 C 371.0625 404.445312 371.078125 403.890625 371.105469 403.335938 C 371.132812 402.78125 371.171875 402.226562 371.226562 401.671875 C 371.28125 401.121094 371.347656 400.570312 371.429688 400.019531 C 371.511719 399.472656 371.609375 398.925781 371.714844 398.378906 C 371.824219 397.835938 371.945312 397.292969 372.082031 396.753906 C 372.214844 396.214844 372.363281 395.679688 372.523438 395.148438 C 372.6875 394.617188 372.859375 394.089844 373.046875 393.566406 C 373.234375 393.042969 373.433594 392.527344 373.648438 392.011719 C 373.859375 391.5 374.085938 390.992188 374.320312 390.488281 C 374.558594 389.988281 374.808594 389.492188 375.070312 389.003906 C 375.332031 388.511719 375.605469 388.03125 375.890625 387.554688 C 376.175781 387.078125 376.472656 386.609375 376.78125 386.144531 C 377.089844 385.683594 377.410156 385.230469 377.742188 384.785156 C 378.074219 384.335938 378.414062 383.898438 378.765625 383.472656 C 379.121094 383.042969 379.480469 382.621094 379.855469 382.210938 C 380.226562 381.796875 380.609375 381.394531 381.003906 381.003906 C 381.394531 380.609375 381.796875 380.226562 382.210938 379.855469 C 382.621094 379.480469 383.042969 379.117188 383.472656 378.765625 C 383.898438 378.414062 384.335938 378.074219 384.785156 377.742188 C 385.230469 377.410156 385.683594 377.089844 386.144531 376.78125 C 386.609375 376.472656 387.078125 376.175781 387.554688 375.890625 C 388.03125 375.605469 388.511719 375.332031 389.003906 375.070312 C 389.492188 374.808594 389.988281 374.558594 390.488281 374.320312 C 390.992188 374.085938 391.5 373.859375 392.011719 373.648438 C 392.527344 373.433594 393.042969 373.234375 393.566406 373.046875 C 394.089844 372.859375 394.617188 372.6875 395.148438 372.523438 C 395.679688 372.363281 396.214844 372.214844 396.753906 372.082031 C 397.292969 371.945312 397.835938 371.824219 398.378906 371.714844 C 398.925781 371.609375 399.472656 371.511719 400.019531 371.429688 C 400.570312 371.347656 401.121094 371.28125 401.671875 371.226562 C 402.226562 371.171875 402.78125 371.132812 403.335938 371.105469 C 403.890625 371.078125 404.445312 371.0625 405 371.0625 C 405.554688 371.0625 406.109375 371.078125 406.664062 371.105469 C 407.21875 371.132812 407.773438 371.171875 408.328125 371.226562 C 408.878906 371.28125 409.429688 371.347656 409.980469 371.429688 C 410.527344 371.511719 411.074219 371.609375 411.621094 371.714844 C 412.164062 371.824219 412.707031 371.945312 413.246094 372.082031 C 413.785156 372.214844 414.320312 372.363281 414.851562 372.523438 C 415.382812 372.6875 415.910156 372.859375 416.433594 373.046875 C 416.957031 373.234375 417.472656 373.433594 417.988281 373.648438 C 418.5 373.859375 419.007812 374.085938 419.511719 374.320312 C 420.011719 374.558594 420.507812 374.808594 420.996094 375.070312 C 421.488281 375.332031 421.96875 375.605469 422.445312 375.890625 C 422.921875 376.175781 423.390625 376.472656 423.855469 376.78125 C 424.316406 377.089844 424.769531 377.410156 425.214844 377.742188 C 425.664062 378.074219 426.101562 378.414062 426.527344 378.765625 C 426.957031 379.117188 427.378906 379.480469 427.789062 379.855469 C 428.203125 380.226562 428.605469 380.609375 428.996094 381.003906 C 429.390625 381.394531 429.773438 381.796875 430.144531 382.210938 C 430.519531 382.621094 430.878906 383.042969 431.234375 383.472656 C 431.585938 383.898438 431.925781 384.335938 432.257812 384.785156 C 432.589844 385.230469 432.910156 385.683594 433.21875 386.144531 C 433.527344 386.609375 433.824219 387.078125 434.109375 387.554688 C 434.394531 388.03125 434.667969 388.511719 434.929688 389.003906 C 435.191406 389.492188 435.441406 389.988281 435.679688 390.488281 C 435.914062 390.992188 436.140625 391.5 436.351562 392.011719 C 436.566406 392.527344 436.765625 393.042969 436.953125 393.566406 C 437.140625 394.089844 437.3125 394.617188 437.476562 395.148438 C 437.636719 395.679688 437.785156 396.214844 437.917969 396.753906 C 438.054688 397.292969 438.175781 397.835938 438.285156 398.378906 C 438.390625 398.925781 438.488281 399.472656 438.570312 400.019531 C 438.652344 400.570312 438.71875 401.121094 438.773438 401.671875 C 438.828125 402.226562 438.867188 402.78125 438.894531 403.335938 C 438.921875 403.890625 438.9375 404.445312 438.9375 405 C 438.933594 405.554688 438.921875 406.109375 438.894531 406.664062 C 438.867188 407.21875 438.824219 407.773438 438.769531 408.324219 C 438.714844 408.878906 438.644531 409.429688 438.5625 409.976562 C 438.480469 410.527344 438.386719 411.074219 438.277344 411.617188 C 438.167969 412.164062 438.046875 412.703125 437.910156 413.242188 C 437.777344 413.78125 437.628906 414.316406 437.464844 414.847656 C 437.304688 415.378906 437.128906 415.90625 436.941406 416.425781 C 436.753906 416.949219 436.554688 417.46875 436.34375 417.980469 C 436.128906 418.492188 435.90625 419 435.667969 419.503906 C 435.429688 420.003906 435.179688 420.5 434.917969 420.988281 C 434.65625 421.480469 434.382812 421.960938 434.097656 422.4375 C 433.8125 422.914062 433.515625 423.382812 433.203125 423.84375 C 432.894531 424.308594 432.578125 424.761719 432.246094 425.207031 C 431.914062 425.652344 431.574219 426.089844 431.222656 426.519531 C 430.867188 426.949219 430.507812 427.367188 430.132812 427.78125 C 429.761719 428.191406 429.378906 428.59375 428.984375 428.984375 C 428.59375 429.378906 428.191406 429.761719 427.78125 430.132812 C 427.367188 430.507812 426.949219 430.867188 426.519531 431.222656 C 426.089844 431.574219 425.652344 431.914062 425.207031 432.246094 C 424.761719 432.578125 424.308594 432.898438 423.84375 433.203125 C 423.382812 433.515625 422.914062 433.8125 422.4375 434.097656 C 421.960938 434.382812 421.480469 434.65625 420.988281 434.917969 C 420.5 435.179688 420.003906 435.429688 419.503906 435.667969 C 419 435.90625 418.492188 436.128906 417.980469 436.34375 C 417.46875 436.554688 416.949219 436.753906 416.425781 436.941406 C 415.90625 437.128906 415.378906 437.304688 414.847656 437.46875 C 414.316406 437.628906 413.78125 437.777344 413.242188 437.910156 C 412.703125 438.046875 412.164062 438.167969 411.617188 438.277344 C 411.074219 438.386719 410.527344 438.480469 409.976562 438.5625 C 409.429688 438.644531 408.878906 438.714844 408.324219 438.769531 C 407.773438 438.824219 407.21875 438.867188 406.664062 438.894531 C 406.109375 438.921875 405.554688 438.933594 405 438.9375 Z M 405 438.9375 " fill-opacity="1" fill-rule="nonzero"/><path fill="#000000" d="M 394.628906 433.339844 L 439.371094 433.339844 L 439.371094 400.660156 L 394.628906 400.660156 Z M 397.140625 430.824219 L 397.140625 404.5625 L 417 418.539062 L 436.859375 404.5625 L 436.859375 430.824219 Z M 399.535156 403.175781 L 434.464844 403.175781 L 417 415.460938 Z M 399.535156 403.175781 " fill-opacity="1" fill-rule="nonzero"/><path fill="#000000" d="M 417 380.550781 C 416.402344 380.550781 415.808594 380.566406 415.210938 380.59375 C 414.617188 380.621094 414.019531 380.667969 413.425781 380.726562 C 412.832031 380.785156 412.242188 380.855469 411.652344 380.945312 C 411.0625 381.03125 410.472656 381.132812 409.890625 381.25 C 409.304688 381.367188 408.722656 381.496094 408.144531 381.640625 C 407.566406 381.789062 406.988281 381.945312 406.417969 382.121094 C 405.847656 382.292969 405.28125 382.480469 404.71875 382.679688 C 404.160156 382.882812 403.601562 383.097656 403.050781 383.324219 C 402.5 383.554688 401.953125 383.796875 401.414062 384.050781 C 400.875 384.304688 400.34375 384.574219 399.816406 384.855469 C 399.292969 385.136719 398.773438 385.429688 398.261719 385.734375 C 397.75 386.042969 397.246094 386.363281 396.75 386.691406 C 396.253906 387.023438 395.765625 387.367188 395.285156 387.722656 C 394.808594 388.078125 394.335938 388.445312 393.875 388.824219 C 393.414062 389.203125 392.964844 389.589844 392.523438 389.992188 C 392.078125 390.394531 391.648438 390.804688 391.226562 391.226562 C 390.804688 391.648438 390.394531 392.078125 389.992188 392.523438 C 389.589844 392.964844 389.203125 393.414062 388.824219 393.875 C 388.445312 394.335938 388.078125 394.808594 387.722656 395.285156 C 387.367188 395.765625 387.023438 396.253906 386.691406 396.75 C 386.359375 397.246094 386.042969 397.75 385.734375 398.261719 C 385.429688 398.773438 385.136719 399.292969 384.855469 399.816406 C 384.574219 400.34375 384.304688 400.875 384.050781 401.414062 C 383.792969 401.953125 383.554688 402.5 383.324219 403.050781 C 383.097656 403.601562 382.882812 404.160156 382.679688 404.71875 C 382.480469 405.28125 382.292969 405.847656 382.121094 406.417969 C 381.945312 406.988281 381.789062 407.566406 381.640625 408.144531 C 381.496094 408.722656 381.367188 409.304688 381.25 409.890625 C 381.132812 410.472656 381.03125 411.0625 380.945312 411.652344 C 380.855469 412.242188 380.785156 412.835938 380.726562 413.425781 C 380.667969 414.019531 380.621094 414.617188 380.59375 415.210938 C 380.566406 415.808594 380.550781 416.402344 380.550781 417 C 380.550781 417.597656 380.566406 418.191406 380.59375 418.789062 C 380.621094 419.382812 380.667969 419.980469 380.726562 420.574219 C 380.785156 421.167969 380.855469 421.757812 380.945312 422.347656 C 381.03125 422.9375 381.132812 423.527344 381.25 424.109375 C 381.367188 424.695312 381.496094 425.277344 381.640625 425.855469 C 381.789062 426.433594 381.945312 427.011719 382.121094 427.582031 C 382.292969 428.152344 382.480469 428.71875 382.679688 429.277344 C 382.882812 429.839844 383.097656 430.398438 383.324219 430.949219 C 383.554688 431.5 383.792969 432.046875 384.050781 432.585938 C 384.304688 433.125 384.574219 433.65625 384.855469 434.183594 C 385.136719 434.707031 385.429688 435.226562 385.734375 435.738281 C 386.042969 436.25 386.359375 436.753906 386.691406 437.25 C 387.023438 437.746094 387.367188 438.234375 387.722656 438.714844 C 388.078125 439.191406 388.445312 439.664062 388.824219 440.125 C 389.203125 440.585938 389.589844 441.035156 389.992188 441.476562 C 390.394531 441.921875 390.804688 442.351562 391.226562 442.773438 C 391.648438 443.195312 392.078125 443.605469 392.523438 444.007812 C 392.964844 444.40625 393.414062 444.796875 393.875 445.175781 C 394.335938 445.554688 394.808594 445.921875 395.285156 446.277344 C 395.765625 446.632812 396.253906 446.976562 396.75 447.308594 C 397.246094 447.640625 397.75 447.957031 398.261719 448.265625 C 398.773438 448.570312 399.292969 448.863281 399.816406 449.144531 C 400.34375 449.425781 400.875 449.695312 401.414062 449.949219 C 401.953125 450.207031 402.5 450.445312 403.050781 450.675781 C 403.601562 450.902344 404.160156 451.117188 404.71875 451.320312 C 405.28125 451.519531 405.847656 451.707031 406.417969 451.878906 C 406.988281 452.054688 407.566406 452.210938 408.144531 452.359375 C 408.722656 452.503906 409.304688 452.632812 409.890625 452.75 C 410.472656 452.867188 411.0625 452.96875 411.652344 453.054688 C 412.242188 453.144531 412.832031 453.214844 413.425781 453.273438 C 414.019531 453.332031 414.617188 453.378906 415.210938 453.40625 C 415.808594 453.433594 416.402344 453.449219 417 453.449219 C 417.597656 453.449219 418.191406 453.433594 418.789062 453.40625 C 419.382812 453.378906 419.980469 453.332031 420.574219 453.273438 C 421.164062 453.214844 421.757812 453.144531 422.347656 453.054688 C 422.9375 452.96875 423.527344 452.867188 424.109375 452.75 C 424.695312 452.632812 425.277344 452.503906 425.855469 452.359375 C 426.433594 452.210938 427.011719 452.054688 427.582031 451.878906 C 428.152344 451.707031 428.71875 451.519531 429.277344 451.320312 C 429.839844 451.117188 430.398438 450.902344 430.949219 450.675781 C 431.5 450.445312 432.046875 450.207031 432.585938 449.949219 C 433.125 449.695312 433.65625 449.425781 434.183594 449.144531 C 434.707031 448.863281 435.226562 448.570312 435.738281 448.265625 C 436.25 447.957031 436.753906 447.640625 437.25 447.308594 C 437.746094 446.976562 438.234375 446.632812 438.714844 446.277344 C 439.191406 445.921875 439.664062 445.554688 440.125 445.175781 C 440.585938 444.796875 441.035156 444.40625 441.476562 444.007812 C 441.921875 443.605469 442.351562 443.195312 442.773438 442.773438 C 443.195312 442.351562 443.605469 441.921875 444.007812 441.476562 C 444.410156 441.035156 444.796875 440.585938 445.175781 440.125 C 445.554688 439.664062 445.921875 439.191406 446.277344 438.714844 C 446.632812 438.234375 446.976562 437.746094 447.308594 437.25 C 447.636719 436.753906 447.957031 436.25 448.265625 435.738281 C 448.570312 435.226562 448.863281 434.707031 449.144531 434.183594 C 449.425781 433.65625 449.695312 433.125 449.949219 432.585938 C 450.203125 432.046875 450.445312 431.5 450.675781 430.949219 C 450.902344 430.398438 451.117188 429.839844 451.320312 429.277344 C 451.519531 428.71875 451.707031 428.152344 451.878906 427.582031 C 452.054688 427.011719 452.210938 426.433594 452.359375 425.855469 C 452.503906 425.277344 452.632812 424.695312 452.75 424.109375 C 452.867188 423.527344 452.96875 422.9375 453.054688 422.347656 C 453.144531 421.757812 453.214844 421.167969 453.273438 420.574219 C 453.332031 419.980469 453.378906 419.382812 453.40625 418.789062 C 453.433594 418.191406 453.449219 417.597656 453.449219 417 C 453.449219 416.402344 453.433594 415.808594 453.402344 415.210938 C 453.375 414.617188 453.328125 414.023438 453.269531 413.429688 C 453.210938 412.835938 453.136719 412.242188 453.050781 411.652344 C 452.960938 411.0625 452.859375 410.476562 452.742188 409.890625 C 452.625 409.308594 452.496094 408.726562 452.347656 408.148438 C 452.203125 407.570312 452.042969 406.996094 451.871094 406.425781 C 451.699219 405.851562 451.511719 405.285156 451.308594 404.726562 C 451.109375 404.164062 450.894531 403.609375 450.664062 403.058594 C 450.4375 402.507812 450.195312 401.960938 449.9375 401.421875 C 449.683594 400.882812 449.414062 400.351562 449.132812 399.828125 C 448.851562 399.300781 448.558594 398.78125 448.25 398.269531 C 447.945312 397.757812 447.625 397.253906 447.292969 396.757812 C 446.960938 396.261719 446.617188 395.777344 446.265625 395.296875 C 445.910156 394.816406 445.542969 394.347656 445.164062 393.886719 C 444.785156 393.425781 444.394531 392.976562 443.996094 392.53125 C 443.59375 392.09375 443.183594 391.660156 442.761719 391.238281 C 442.339844 390.816406 441.90625 390.40625 441.46875 390.003906 C 441.023438 389.605469 440.574219 389.214844 440.113281 388.835938 C 439.652344 388.457031 439.183594 388.089844 438.703125 387.734375 C 438.222656 387.382812 437.738281 387.039062 437.242188 386.707031 C 436.746094 386.375 436.242188 386.054688 435.730469 385.75 C 435.21875 385.441406 434.699219 385.148438 434.171875 384.867188 C 433.648438 384.585938 433.117188 384.316406 432.578125 384.0625 C 432.039062 383.804688 431.492188 383.5625 430.941406 383.335938 C 430.390625 383.105469 429.835938 382.890625 429.273438 382.691406 C 428.714844 382.488281 428.148438 382.300781 427.574219 382.128906 C 427.003906 381.957031 426.429688 381.796875 425.851562 381.652344 C 425.273438 381.503906 424.691406 381.375 424.109375 381.257812 C 423.523438 381.140625 422.9375 381.039062 422.347656 380.949219 C 421.757812 380.863281 421.164062 380.789062 420.570312 380.730469 C 419.976562 380.671875 419.382812 380.625 418.789062 380.597656 C 418.191406 380.566406 417.597656 380.550781 417 380.550781 Z M 417 450.9375 C 416.445312 450.9375 415.890625 450.921875 415.335938 450.894531 C 414.78125 450.867188 414.226562 450.828125 413.671875 450.773438 C 413.121094 450.71875 412.570312 450.652344 412.019531 450.570312 C 411.472656 450.488281 410.925781 450.390625 410.378906 450.285156 C 409.835938 450.175781 409.292969 450.054688 408.753906 449.917969 C 408.214844 449.785156 407.679688 449.636719 407.148438 449.476562 C 406.617188 449.3125 406.089844 449.140625 405.566406 448.953125 C 405.042969 448.765625 404.527344 448.566406 404.011719 448.351562 C 403.5 448.140625 402.992188 447.914062 402.488281 447.679688 C 401.988281 447.441406 401.492188 447.191406 401.003906 446.929688 C 400.511719 446.667969 400.03125 446.394531 399.554688 446.109375 C 399.078125 445.824219 398.609375 445.527344 398.144531 445.21875 C 397.683594 444.90625 397.230469 444.589844 396.785156 444.257812 C 396.335938 443.925781 395.898438 443.585938 395.472656 443.234375 C 395.042969 442.878906 394.621094 442.519531 394.210938 442.144531 C 393.796875 441.773438 393.394531 441.390625 393.003906 440.996094 C 392.609375 440.605469 392.226562 440.203125 391.855469 439.789062 C 391.480469 439.378906 391.121094 438.957031 390.765625 438.527344 C 390.414062 438.101562 390.074219 437.664062 389.742188 437.214844 C 389.410156 436.769531 389.089844 436.316406 388.78125 435.855469 C 388.472656 435.390625 388.175781 434.921875 387.890625 434.445312 C 387.605469 433.96875 387.332031 433.488281 387.070312 432.996094 C 386.808594 432.507812 386.558594 432.011719 386.320312 431.511719 C 386.085938 431.007812 385.859375 430.5 385.648438 429.988281 C 385.433594 429.472656 385.234375 428.957031 385.046875 428.433594 C 384.859375 427.910156 384.6875 427.382812 384.523438 426.851562 C 384.363281 426.320312 384.214844 425.785156 384.082031 425.246094 C 383.945312 424.707031 383.824219 424.164062 383.714844 423.621094 C 383.609375 423.074219 383.511719 422.527344 383.429688 421.980469 C 383.347656 421.429688 383.28125 420.878906 383.226562 420.328125 C 383.171875 419.773438 383.132812 419.21875 383.105469 418.664062 C 383.078125 418.109375 383.0625 417.554688 383.0625 417 C 383.0625 416.445312 383.078125 415.890625 383.105469 415.335938 C 383.132812 414.78125 383.171875 414.226562 383.226562 413.671875 C 383.28125 413.121094 383.347656 412.570312 383.429688 412.019531 C 383.511719 411.472656 383.609375 410.925781 383.714844 410.378906 C 383.824219 409.835938 383.945312 409.292969 384.082031 408.753906 C 384.214844 408.214844 384.363281 407.679688 384.523438 407.148438 C 384.6875 406.617188 384.859375 406.089844 385.046875 405.566406 C 385.234375 405.042969 385.433594 404.527344 385.648438 404.011719 C 385.859375 403.5 386.085938 402.992188 386.320312 402.488281 C 386.558594 401.988281 386.808594 401.492188 387.070312 401.003906 C 387.332031 400.511719 387.605469 400.03125 387.890625 399.554688 C 388.175781 399.078125 388.472656 398.609375 388.78125 398.144531 C 389.089844 397.683594 389.410156 397.230469 389.742188 396.785156 C 390.074219 396.335938 390.414062 395.898438 390.765625 395.472656 C 391.121094 395.042969 391.480469 394.621094 391.855469 394.210938 C 392.226562 393.796875 392.609375 393.394531 393.003906 393.003906 C 393.394531 392.609375 393.796875 392.226562 394.210938 391.855469 C 394.621094 391.480469 395.042969 391.117188 395.472656 390.765625 C 395.898438 390.414062 396.335938 390.074219 396.785156 389.742188 C 397.230469 389.410156 397.683594 389.089844 398.144531 388.78125 C 398.609375 388.472656 399.078125 388.175781 399.554688 387.890625 C 400.03125 387.605469 400.511719 387.332031 401.003906 387.070312 C 401.492188 386.808594 401.988281 386.558594 402.488281 386.320312 C 402.992188 386.085938 403.5 385.859375 404.011719 385.648438 C 404.527344 385.433594 405.042969 385.234375 405.566406 385.046875 C 406.089844 384.859375 406.617188 384.6875 407.148438 384.523438 C 407.679688 384.363281 408.214844 384.214844 408.753906 384.082031 C 409.292969 383.945312 409.835938 383.824219 410.378906 383.714844 C 410.925781 383.609375 411.472656 383.511719 412.019531 383.429688 C 412.570312 383.347656 413.121094 383.28125 413.671875 383.226562 C 414.226562 383.171875 414.78125 383.132812 415.335938 383.105469 C 415.890625 383.078125 416.445312 383.0625 417 383.0625 C 417.554688 383.0625 418.109375 383.078125 418.664062 383.105469 C 419.21875 383.132812 419.773438 383.171875 420.328125 383.226562 C 420.878906 383.28125 421.429688 383.347656 421.980469 383.429688 C 422.527344 383.511719 423.074219 383.609375 423.621094 383.714844 C 424.164062 383.824219 424.707031 383.945312 425.246094 384.082031 C 425.785156 384.214844 426.320312 384.363281 426.851562 384.523438 C 427.382812 384.6875 427.910156 384.859375 428.433594 385.046875 C 428.957031 385.234375 429.472656 385.433594 429.988281 385.648438 C 430.5 385.859375 431.007812 386.085938 431.511719 386.320312 C 432.011719 386.558594 432.507812 386.808594 432.996094 387.070312 C 433.488281 387.332031 433.96875 387.605469 434.445312 387.890625 C 434.921875 388.175781 435.390625 388.472656 435.855469 388.78125 C 436.316406 389.089844 436.769531 389.410156 437.214844 389.742188 C 437.664062 390.074219 438.101562 390.414062 438.527344 390.765625 C 438.957031 391.117188 439.378906 391.480469 439.789062 391.855469 C 440.203125 392.226562 440.605469 392.609375 440.996094 393.003906 C 441.390625 393.394531 441.773438 393.796875 442.144531 394.210938 C 442.519531 394.621094 442.878906 395.042969 443.234375 395.472656 C 443.585938 395.898438 443.925781 396.335938 444.257812 396.785156 C 444.589844 397.230469 444.910156 397.683594 445.21875 398.144531 C 445.527344 398.609375 445.824219 399.078125 446.109375 399.554688 C 446.394531 400.03125 446.667969 400.511719 446.929688 401.003906 C 447.191406 401.492188 447.441406 401.988281 447.679688 402.488281 C 447.914062 402.992188 448.140625 403.5 448.351562 404.011719 C 448.566406 404.527344 448.765625 405.042969 448.953125 405.566406 C 449.140625 406.089844 449.3125 406.617188 449.476562 407.148438 C 449.636719 407.679688 449.785156 408.214844 449.917969 408.753906 C 450.054688 409.292969 450.175781 409.835938 450.285156 410.378906 C 450.390625 410.925781 450.488281 411.472656 450.570312 412.019531 C 450.652344 412.570312 450.71875 413.121094 450.773438 413.671875 C 450.828125 414.226562 450.867188 414.78125 450.894531 415.335938 C 450.921875 415.890625 450.9375 416.445312 450.9375 417 C 450.933594 417.554688 450.921875 418.109375 450.894531 418.664062 C 450.867188 419.21875 450.824219 419.773438 450.769531 420.324219 C 450.714844 420.878906 450.644531 421.429688 450.5625 421.976562 C 450.480469 422.527344 450.386719 423.074219 450.277344 423.617188 C 450.167969 424.164062 450.046875 424.703125 449.910156 425.242188 C 449.777344 425.78125 449.628906 426.316406 449.464844 426.847656 C 449.304688 427.378906 449.128906 427.90625 448.941406 428.425781 C 448.753906 428.949219 448.554688 429.46875 448.34375 429.980469 C 448.128906 430.492188 447.90625 431 447.667969 431.503906 C 447.429688 432.003906 447.179688 432.5 446.917969 432.988281 C 446.65625 433.480469 446.382812 433.960938 446.097656 434.4375 C 445.8125 434.914062 445.515625 435.382812 445.203125 435.84375 C 444.894531 436.308594 444.578125 436.761719 444.246094 437.207031 C 443.914062 437.652344 443.574219 438.089844 443.222656 438.519531 C 442.867188 438.949219 442.507812 439.367188 442.132812 439.78125 C 441.761719 440.191406 441.378906 440.59375 440.984375 440.984375 C 440.59375 441.378906 440.191406 441.761719 439.78125 442.132812 C 439.367188 442.507812 438.949219 442.867188 438.519531 443.222656 C 438.089844 443.574219 437.652344 443.914062 437.207031 444.246094 C 436.761719 444.578125 436.308594 444.898438 435.84375 445.203125 C 435.382812 445.515625 434.914062 445.8125 434.4375 446.097656 C 433.960938 446.382812 433.480469 446.65625 432.988281 446.917969 C 432.5 447.179688 432.003906 447.429688 431.503906 447.667969 C 431 447.90625 430.492188 448.128906 429.980469 448.34375 C 429.46875 448.554688 428.949219 448.753906 428.425781 448.941406 C 427.90625 449.128906 427.378906 449.304688 426.847656 449.46875 C 426.316406 449.628906 425.78125 449.777344 425.242188 449.910156 C 424.703125 450.046875 424.164062 450.167969 423.617188 450.277344 C 423.074219 450.386719 422.527344 450.480469 421.976562 450.5625 C 421.429688 450.644531 420.878906 450.714844 420.324219 450.769531 C 419.773438 450.824219 419.21875 450.867188 418.664062 450.894531 C 418.109375 450.921875 417.554688 450.933594 417 450.9375 Z M 417 450.9375 " fill-opacity="1" fill-rule="nonzero"/></svg>