<svg xmlns="http://www.w3.org/2000/svg" xmlns:xlink="http://www.w3.org/1999/xlink" width="1080" zoomAndPan="magnify" viewBox="0 0 810 1439.999935" height="1920" preserveAspectRatio="xMidYMid meet" version="1.0"><defs><clipPath id="62dba5dc52"><path d="M 244 605 L 567 605 L 567 914.195312 L 244 914.195312 Z M 244 605 " clip-rule="nonzero"/></clipPath><clipPath id="ba91b5c18e"><path d="M 324 525.695312 L 488 525.695312 L 488 671 L 324 671 Z M 324 525.695312 " clip-rule="nonzero"/></clipPath></defs><g clip-path="url(#62dba5dc52)"><path fill="#000000" d="M 543.09375 914.195312 L 268.53125 914.195312 C 261.867188 914.195312 255.394531 911.417969 250.824219 906.574219 C 246.242188 901.730469 243.816406 895.128906 244.191406 888.464844 L 258.648438 628.382812 C 259.363281 615.457031 270.046875 605.347656 282.988281 605.347656 L 528.636719 605.347656 C 541.582031 605.347656 552.261719 615.457031 552.980469 628.382812 L 567.433594 888.464844 C 567.808594 895.128906 565.386719 901.730469 560.800781 906.574219 C 556.214844 911.417969 549.757812 914.195312 543.09375 914.195312 Z M 282.988281 621.601562 C 278.679688 621.601562 275.101562 624.984375 274.875 629.277344 L 260.417969 889.359375 C 260.304688 891.617188 261.085938 893.765625 262.628906 895.40625 C 264.191406 897.03125 266.273438 897.941406 268.53125 897.941406 L 543.09375 897.941406 C 545.351562 897.941406 547.449219 897.03125 548.996094 895.40625 C 550.539062 893.765625 551.335938 891.617188 551.207031 889.359375 L 536.75 629.277344 C 536.523438 624.984375 532.945312 621.601562 528.636719 621.601562 Z M 282.988281 621.601562 " fill-opacity="1" fill-rule="nonzero"/></g><g clip-path="url(#ba91b5c18e)"><path fill="#000000" d="M 478.980469 670.757812 C 474.492188 670.757812 470.851562 667.117188 470.851562 662.632812 L 470.851562 606.84375 C 470.851562 570.984375 441.683594 541.824219 405.8125 541.824219 C 369.945312 541.824219 340.773438 570.984375 340.773438 606.84375 L 340.773438 662.632812 C 340.773438 667.117188 337.132812 670.757812 332.644531 670.757812 C 328.15625 670.757812 324.515625 667.117188 324.515625 662.632812 L 324.515625 606.84375 C 324.515625 562.027344 360.984375 525.566406 405.8125 525.566406 C 450.640625 525.566406 487.109375 562.027344 487.109375 606.84375 L 487.109375 662.632812 C 487.109375 667.117188 483.46875 670.757812 478.980469 670.757812 Z M 478.980469 670.757812 " fill-opacity="1" fill-rule="nonzero"/></g></svg>