<svg xmlns="http://www.w3.org/2000/svg" xmlns:xlink="http://www.w3.org/1999/xlink" width="1080" zoomAndPan="magnify" viewBox="0 0 810 1439.999935" height="1920" preserveAspectRatio="xMidYMid meet" version="1.0"><path fill="#ffffff" d="M 305.566406 792.621094 L 504.433594 792.621094 L 504.433594 647.378906 L 305.566406 647.378906 Z M 316.738281 781.449219 L 316.738281 664.722656 L 405 726.832031 L 493.261719 664.722656 L 493.261719 781.449219 Z M 327.386719 658.550781 L 482.613281 658.550781 L 405 713.167969 Z M 327.386719 658.550781 " fill-opacity="1" fill-rule="nonzero"/><path fill="#ffffff" d="M 405 558 C 402.347656 558 399.699219 558.066406 397.050781 558.195312 C 394.402344 558.324219 391.757812 558.519531 389.121094 558.78125 C 386.484375 559.039062 383.851562 559.363281 381.230469 559.753906 C 378.605469 560.140625 375.996094 560.59375 373.394531 561.113281 C 370.796875 561.628906 368.207031 562.210938 365.636719 562.855469 C 363.066406 563.5 360.511719 564.207031 357.972656 564.976562 C 355.4375 565.746094 352.921875 566.578125 350.421875 567.46875 C 347.925781 568.363281 345.453125 569.316406 343.003906 570.332031 C 340.554688 571.347656 338.132812 572.421875 335.734375 573.554688 C 333.339844 574.6875 330.972656 575.878906 328.632812 577.128906 C 326.296875 578.378906 323.988281 579.683594 321.714844 581.046875 C 319.441406 582.410156 317.203125 583.828125 314.996094 585.300781 C 312.792969 586.773438 310.625 588.300781 308.496094 589.878906 C 306.367188 591.460938 304.277344 593.089844 302.226562 594.773438 C 300.179688 596.453125 298.171875 598.183594 296.207031 599.964844 C 294.242188 601.746094 292.324219 603.574219 290.449219 605.449219 C 288.574219 607.324219 286.746094 609.242188 284.964844 611.207031 C 283.183594 613.171875 281.453125 615.179688 279.773438 617.226562 C 278.089844 619.277344 276.460938 621.367188 274.878906 623.496094 C 273.300781 625.625 271.773438 627.792969 270.300781 629.996094 C 268.828125 632.203125 267.410156 634.441406 266.046875 636.714844 C 264.683594 638.988281 263.378906 641.296875 262.128906 643.632812 C 260.878906 645.972656 259.6875 648.339844 258.554688 650.734375 C 257.421875 653.132812 256.347656 655.554688 255.332031 658.003906 C 254.316406 660.453125 253.363281 662.925781 252.46875 665.421875 C 251.578125 667.921875 250.746094 670.4375 249.976562 672.972656 C 249.207031 675.511719 248.5 678.066406 247.855469 680.636719 C 247.210938 683.207031 246.628906 685.796875 246.113281 688.394531 C 245.59375 690.996094 245.140625 693.605469 244.753906 696.230469 C 244.363281 698.851562 244.039062 701.484375 243.78125 704.121094 C 243.519531 706.757812 243.324219 709.402344 243.195312 712.050781 C 243.066406 714.699219 243 717.347656 243 720 C 243 722.652344 243.066406 725.300781 243.195312 727.949219 C 243.324219 730.597656 243.519531 733.238281 243.78125 735.878906 C 244.039062 738.515625 244.363281 741.148438 244.753906 743.769531 C 245.140625 746.394531 245.59375 749.003906 246.113281 751.605469 C 246.628906 754.203125 247.210938 756.789062 247.855469 759.363281 C 248.5 761.933594 249.207031 764.488281 249.976562 767.027344 C 250.746094 769.5625 251.578125 772.078125 252.46875 774.574219 C 253.363281 777.074219 254.316406 779.546875 255.332031 781.996094 C 256.347656 784.445312 257.421875 786.867188 258.554688 789.265625 C 259.6875 791.660156 260.878906 794.027344 262.128906 796.367188 C 263.378906 798.703125 264.683594 801.011719 266.046875 803.285156 C 267.410156 805.558594 268.828125 807.796875 270.300781 810.003906 C 271.773438 812.207031 273.300781 814.375 274.878906 816.503906 C 276.460938 818.632812 278.089844 820.722656 279.773438 822.773438 C 281.453125 824.820312 283.183594 826.828125 284.964844 828.792969 C 286.746094 830.757812 288.574219 832.675781 290.449219 834.550781 C 292.324219 836.425781 294.242188 838.253906 296.207031 840.035156 C 298.171875 841.8125 300.179688 843.546875 302.226562 845.226562 C 304.277344 846.910156 306.367188 848.539062 308.496094 850.121094 C 310.625 851.699219 312.792969 853.226562 314.996094 854.699219 C 317.203125 856.171875 319.441406 857.589844 321.714844 858.953125 C 323.988281 860.316406 326.296875 861.621094 328.632812 862.871094 C 330.972656 864.121094 333.339844 865.3125 335.734375 866.445312 C 338.132812 867.578125 340.554688 868.652344 343.003906 869.667969 C 345.453125 870.683594 347.925781 871.636719 350.421875 872.53125 C 352.921875 873.421875 355.4375 874.253906 357.972656 875.023438 C 360.511719 875.792969 363.066406 876.5 365.636719 877.144531 C 368.207031 877.789062 370.796875 878.371094 373.394531 878.886719 C 375.996094 879.40625 378.605469 879.859375 381.230469 880.246094 C 383.851562 880.636719 386.484375 880.960938 389.121094 881.21875 C 391.757812 881.480469 394.402344 881.675781 397.050781 881.804688 C 399.699219 881.933594 402.347656 882 405 882 C 407.652344 882 410.300781 881.933594 412.949219 881.804688 C 415.597656 881.675781 418.242188 881.480469 420.878906 881.21875 C 423.515625 880.960938 426.148438 880.636719 428.769531 880.246094 C 431.394531 879.859375 434.003906 879.40625 436.605469 878.886719 C 439.203125 878.371094 441.789062 877.789062 444.363281 877.144531 C 446.933594 876.5 449.488281 875.792969 452.027344 875.023438 C 454.5625 874.253906 457.078125 873.421875 459.574219 872.53125 C 462.074219 871.636719 464.546875 870.683594 466.996094 869.667969 C 469.445312 868.652344 471.867188 867.578125 474.265625 866.445312 C 476.660156 865.3125 479.027344 864.121094 481.367188 862.871094 C 483.703125 861.621094 486.011719 860.316406 488.285156 858.953125 C 490.558594 857.589844 492.796875 856.171875 495.003906 854.699219 C 497.207031 853.226562 499.375 851.699219 501.503906 850.121094 C 503.632812 848.539062 505.722656 846.910156 507.773438 845.226562 C 509.820312 843.546875 511.828125 841.8125 513.792969 840.035156 C 515.757812 838.253906 517.675781 836.425781 519.550781 834.550781 C 521.425781 832.675781 523.253906 830.757812 525.035156 828.792969 C 526.816406 826.828125 528.546875 824.820312 530.226562 822.773438 C 531.910156 820.722656 533.539062 818.632812 535.121094 816.503906 C 536.699219 814.375 538.226562 812.207031 539.699219 810.003906 C 541.171875 807.796875 542.589844 805.558594 543.953125 803.285156 C 545.316406 801.011719 546.621094 798.703125 547.871094 796.367188 C 549.121094 794.027344 550.3125 791.660156 551.445312 789.265625 C 552.578125 786.867188 553.652344 784.445312 554.667969 781.996094 C 555.683594 779.546875 556.636719 777.074219 557.53125 774.574219 C 558.421875 772.078125 559.253906 769.5625 560.023438 767.027344 C 560.792969 764.488281 561.5 761.933594 562.144531 759.363281 C 562.789062 756.789062 563.371094 754.203125 563.886719 751.605469 C 564.40625 749.003906 564.859375 746.394531 565.246094 743.769531 C 565.636719 741.148438 565.960938 738.515625 566.21875 735.878906 C 566.480469 733.238281 566.675781 730.597656 566.804688 727.949219 C 566.933594 725.300781 567 722.652344 567 720 C 566.996094 717.347656 566.929688 714.699219 566.796875 712.054688 C 566.664062 709.40625 566.464844 706.765625 566.203125 704.125 C 565.941406 701.488281 565.613281 698.859375 565.222656 696.238281 C 564.832031 693.617188 564.375 691.007812 563.855469 688.40625 C 563.335938 685.808594 562.753906 683.222656 562.109375 680.652344 C 561.460938 678.082031 560.753906 675.53125 559.984375 672.996094 C 559.210938 670.457031 558.378906 667.941406 557.484375 665.449219 C 556.589844 662.953125 555.636719 660.480469 554.621094 658.035156 C 553.605469 655.585938 552.527344 653.164062 551.394531 650.769531 C 550.257812 648.375 549.066406 646.007812 547.816406 643.671875 C 546.566406 641.332031 545.257812 639.027344 543.894531 636.753906 C 542.53125 634.484375 541.113281 632.246094 539.640625 630.042969 C 538.167969 627.835938 536.640625 625.671875 535.0625 623.542969 C 533.484375 621.414062 531.851562 619.328125 530.171875 617.277344 C 528.488281 615.230469 526.757812 613.222656 524.980469 611.257812 C 523.199219 609.296875 521.371094 607.375 519.496094 605.503906 C 517.625 603.628906 515.703125 601.800781 513.742188 600.019531 C 511.777344 598.242188 509.769531 596.511719 507.722656 594.828125 C 505.671875 593.148438 503.585938 591.515625 501.457031 589.9375 C 499.328125 588.359375 497.164062 586.832031 494.957031 585.359375 C 492.753906 583.886719 490.515625 582.46875 488.246094 581.105469 C 485.972656 579.738281 483.667969 578.433594 481.328125 577.183594 C 478.992188 575.933594 476.625 574.738281 474.230469 573.605469 C 471.835938 572.472656 469.414062 571.394531 466.964844 570.378906 C 464.519531 569.363281 462.046875 568.410156 459.550781 567.515625 C 457.058594 566.621094 454.542969 565.789062 452.003906 565.015625 C 449.46875 564.246094 446.917969 563.535156 444.347656 562.890625 C 441.777344 562.246094 439.191406 561.664062 436.59375 561.144531 C 433.992188 560.625 431.382812 560.167969 428.761719 559.777344 C 426.140625 559.386719 423.511719 559.058594 420.871094 558.796875 C 418.234375 558.535156 415.59375 558.335938 412.945312 558.203125 C 410.300781 558.070312 407.652344 558.003906 405 558 Z M 405 870.828125 C 402.53125 870.828125 400.066406 870.765625 397.597656 870.644531 C 395.132812 870.523438 392.671875 870.34375 390.214844 870.101562 C 387.761719 869.859375 385.3125 869.558594 382.867188 869.195312 C 380.425781 868.832031 377.996094 868.410156 375.574219 867.929688 C 373.152344 867.449219 370.746094 866.90625 368.351562 866.308594 C 365.957031 865.707031 363.578125 865.050781 361.21875 864.332031 C 358.855469 863.617188 356.511719 862.84375 354.1875 862.011719 C 351.863281 861.179688 349.5625 860.292969 347.28125 859.347656 C 345 858.402344 342.746094 857.402344 340.511719 856.347656 C 338.28125 855.292969 336.078125 854.179688 333.898438 853.019531 C 331.722656 851.855469 329.578125 850.636719 327.460938 849.367188 C 325.34375 848.101562 323.257812 846.78125 321.203125 845.410156 C 319.152344 844.035156 317.132812 842.617188 315.152344 841.144531 C 313.167969 839.675781 311.222656 838.15625 309.316406 836.589844 C 307.40625 835.023438 305.539062 833.414062 303.710938 831.753906 C 301.882812 830.097656 300.09375 828.398438 298.347656 826.652344 C 296.601562 824.90625 294.902344 823.117188 293.242188 821.289062 C 291.585938 819.460938 289.976562 817.59375 288.410156 815.683594 C 286.84375 813.777344 285.324219 811.832031 283.855469 809.847656 C 282.382812 807.863281 280.960938 805.847656 279.589844 803.796875 C 278.21875 801.742188 276.898438 799.65625 275.628906 797.539062 C 274.363281 795.421875 273.144531 793.277344 271.980469 791.097656 C 270.816406 788.921875 269.707031 786.71875 268.652344 784.488281 C 267.597656 782.253906 266.597656 780 265.652344 777.71875 C 264.707031 775.4375 263.820312 773.136719 262.988281 770.8125 C 262.15625 768.488281 261.382812 766.144531 260.667969 763.78125 C 259.949219 761.421875 259.292969 759.042969 258.691406 756.648438 C 258.09375 754.253906 257.550781 751.847656 257.070312 749.425781 C 256.589844 747.003906 256.167969 744.574219 255.804688 742.132812 C 255.441406 739.6875 255.140625 737.238281 254.898438 734.785156 C 254.65625 732.328125 254.476562 729.867188 254.355469 727.402344 C 254.234375 724.933594 254.171875 722.46875 254.171875 720 C 254.171875 717.53125 254.234375 715.066406 254.355469 712.597656 C 254.476562 710.132812 254.65625 707.671875 254.898438 705.214844 C 255.140625 702.757812 255.441406 700.3125 255.804688 697.867188 C 256.167969 695.425781 256.589844 692.996094 257.070312 690.574219 C 257.550781 688.152344 258.09375 685.746094 258.691406 683.351562 C 259.292969 680.957031 259.949219 678.578125 260.667969 676.21875 C 261.382812 673.855469 262.15625 671.511719 262.988281 669.1875 C 263.820312 666.863281 264.707031 664.5625 265.652344 662.28125 C 266.597656 660 267.597656 657.746094 268.652344 655.511719 C 269.707031 653.28125 270.816406 651.078125 271.980469 648.898438 C 273.144531 646.722656 274.363281 644.578125 275.628906 642.460938 C 276.898438 640.34375 278.21875 638.257812 279.589844 636.203125 C 280.960938 634.152344 282.382812 632.132812 283.855469 630.152344 C 285.324219 628.167969 286.84375 626.222656 288.410156 624.316406 C 289.976562 622.40625 291.585938 620.539062 293.242188 618.710938 C 294.902344 616.882812 296.601562 615.09375 298.347656 613.347656 C 300.09375 611.601562 301.882812 609.902344 303.710938 608.242188 C 305.539062 606.585938 307.40625 604.972656 309.316406 603.410156 C 311.222656 601.84375 313.167969 600.324219 315.152344 598.855469 C 317.132812 597.382812 319.152344 595.960938 321.203125 594.589844 C 323.257812 593.21875 325.34375 591.898438 327.460938 590.628906 C 329.578125 589.363281 331.722656 588.144531 333.898438 586.980469 C 336.078125 585.816406 338.28125 584.707031 340.511719 583.652344 C 342.746094 582.597656 345 581.597656 347.28125 580.652344 C 349.5625 579.707031 351.863281 578.820312 354.1875 577.988281 C 356.511719 577.15625 358.855469 576.382812 361.21875 575.667969 C 363.578125 574.949219 365.957031 574.292969 368.351562 573.691406 C 370.746094 573.09375 373.152344 572.550781 375.574219 572.070312 C 377.996094 571.589844 380.425781 571.167969 382.867188 570.804688 C 385.3125 570.441406 387.761719 570.140625 390.214844 569.898438 C 392.671875 569.65625 395.132812 569.476562 397.597656 569.355469 C 400.066406 569.234375 402.53125 569.171875 405 569.171875 C 407.46875 569.171875 409.933594 569.234375 412.402344 569.355469 C 414.867188 569.476562 417.328125 569.65625 419.785156 569.898438 C 422.238281 570.140625 424.6875 570.441406 427.132812 570.804688 C 429.574219 571.167969 432.003906 571.589844 434.425781 572.070312 C 436.847656 572.550781 439.253906 573.09375 441.648438 573.691406 C 444.042969 574.292969 446.421875 574.949219 448.78125 575.667969 C 451.144531 576.382812 453.488281 577.15625 455.8125 577.988281 C 458.136719 578.820312 460.4375 579.707031 462.71875 580.652344 C 465 581.597656 467.253906 582.597656 469.488281 583.652344 C 471.71875 584.707031 473.921875 585.816406 476.101562 586.980469 C 478.277344 588.144531 480.421875 589.363281 482.539062 590.628906 C 484.65625 591.898438 486.742188 593.21875 488.796875 594.589844 C 490.847656 595.960938 492.863281 597.382812 494.847656 598.855469 C 496.832031 600.324219 498.777344 601.84375 500.683594 603.410156 C 502.59375 604.972656 504.460938 606.585938 506.289062 608.242188 C 508.117188 609.902344 509.90625 611.601562 511.652344 613.347656 C 513.398438 615.09375 515.097656 616.882812 516.753906 618.710938 C 518.414062 620.539062 520.023438 622.40625 521.589844 624.316406 C 523.15625 626.222656 524.675781 628.167969 526.144531 630.152344 C 527.617188 632.132812 529.039062 634.152344 530.410156 636.203125 C 531.78125 638.257812 533.101562 640.34375 534.367188 642.460938 C 535.636719 644.578125 536.855469 646.722656 538.019531 648.898438 C 539.179688 651.078125 540.292969 653.28125 541.347656 655.511719 C 542.402344 657.746094 543.402344 660 544.347656 662.28125 C 545.292969 664.5625 546.179688 666.863281 547.011719 669.1875 C 547.84375 671.511719 548.617188 673.855469 549.332031 676.21875 C 550.050781 678.578125 550.707031 680.957031 551.308594 683.351562 C 551.90625 685.746094 552.449219 688.152344 552.929688 690.574219 C 553.410156 692.996094 553.832031 695.425781 554.195312 697.867188 C 554.558594 700.3125 554.859375 702.757812 555.101562 705.214844 C 555.34375 707.671875 555.523438 710.132812 555.644531 712.597656 C 555.765625 715.066406 555.828125 717.53125 555.828125 720 C 555.824219 722.46875 555.761719 724.933594 555.636719 727.398438 C 555.515625 729.863281 555.332031 732.324219 555.085938 734.777344 C 554.84375 737.234375 554.539062 739.683594 554.171875 742.121094 C 553.808594 744.5625 553.386719 746.992188 552.902344 749.414062 C 552.417969 751.832031 551.875 754.238281 551.273438 756.632812 C 550.671875 759.027344 550.011719 761.402344 549.296875 763.765625 C 548.578125 766.125 547.800781 768.46875 546.96875 770.789062 C 546.136719 773.113281 545.246094 775.414062 544.300781 777.691406 C 543.355469 779.972656 542.355469 782.226562 541.300781 784.457031 C 540.242188 786.6875 539.132812 788.890625 537.96875 791.066406 C 536.804688 793.242188 535.585938 795.386719 534.320312 797.503906 C 533.050781 799.621094 531.730469 801.703125 530.355469 803.753906 C 528.984375 805.808594 527.566406 807.824219 526.09375 809.804688 C 524.625 811.785156 523.105469 813.730469 521.539062 815.640625 C 519.972656 817.546875 518.363281 819.414062 516.707031 821.242188 C 515.046875 823.070312 513.347656 824.855469 511.601562 826.601562 C 509.855469 828.347656 508.070312 830.046875 506.242188 831.707031 C 504.414062 833.363281 502.546875 834.972656 500.640625 836.539062 C 498.730469 838.105469 496.789062 839.625 494.804688 841.09375 C 492.824219 842.566406 490.808594 843.984375 488.753906 845.355469 C 486.703125 846.730469 484.621094 848.050781 482.503906 849.320312 C 480.386719 850.585938 478.242188 851.804688 476.066406 852.96875 C 473.890625 854.132812 471.6875 855.242188 469.457031 856.300781 C 467.226562 857.355469 464.972656 858.355469 462.691406 859.300781 C 460.414062 860.246094 458.113281 861.136719 455.789062 861.96875 C 453.46875 862.800781 451.125 863.578125 448.765625 864.296875 C 446.402344 865.011719 444.027344 865.671875 441.632812 866.273438 C 439.238281 866.875 436.832031 867.417969 434.414062 867.902344 C 431.992188 868.386719 429.5625 868.808594 427.121094 869.171875 C 424.683594 869.539062 422.234375 869.84375 419.777344 870.085938 C 417.324219 870.332031 414.863281 870.515625 412.398438 870.636719 C 409.933594 870.761719 407.46875 870.824219 405 870.828125 Z M 405 870.828125 " fill-opacity="1" fill-rule="nonzero"/></svg>