<svg xmlns="http://www.w3.org/2000/svg" xmlns:xlink="http://www.w3.org/1999/xlink" width="1080" zoomAndPan="magnify" viewBox="0 0 810 1439.999935" height="1920" preserveAspectRatio="xMidYMid meet" version="1.0"><defs><clipPath id="bc4ebb4b17"><path d="M 243 576.425781 L 567 576.425781 L 567 863.675781 L 243 863.675781 Z M 243 576.425781 " clip-rule="nonzero"/></clipPath></defs><g clip-path="url(#bc4ebb4b17)"><path fill="#000000" d="M 405 863.5 L 401.566406 861.167969 C 401.175781 860.90625 361.714844 833.949219 322.832031 796.691406 C 299.894531 774.660156 281.554688 753.402344 268.335938 733.445312 C 251.554688 707.914062 243 684.261719 243 663.265625 C 243 615.445312 281.945312 576.5 329.765625 576.5 C 347.523438 576.5 364.695312 581.941406 379.339844 592.3125 C 389.964844 599.828125 398.648438 609.417969 405 620.433594 C 411.351562 609.355469 420.035156 599.761719 430.660156 592.3125 C 445.304688 581.941406 462.476562 576.5 480.234375 576.5 C 528.054688 576.5 567 615.445312 567 663.265625 L 567 663.332031 C 566.804688 684.199219 558.1875 707.65625 541.339844 733.121094 C 528.121094 753.078125 509.847656 774.335938 486.90625 796.429688 C 448.09375 833.820312 408.824219 860.90625 408.433594 861.167969 Z M 329.765625 588.617188 C 288.621094 588.617188 255.117188 622.121094 255.117188 663.265625 C 255.117188 681.863281 262.957031 703.183594 278.445312 726.640625 C 291.082031 745.824219 308.835938 766.429688 331.128906 787.8125 C 362.6875 818.074219 394.695312 841.46875 405 848.726562 C 415.304688 841.402344 447.121094 817.878906 478.613281 787.554688 C 500.839844 766.105469 518.53125 745.5625 531.230469 726.382812 C 546.71875 702.925781 554.6875 681.734375 554.816406 663.265625 C 554.816406 622.121094 521.316406 588.683594 480.167969 588.683594 C 449.648438 588.683594 421.71875 607.992188 410.574219 636.765625 L 404.933594 651.410156 L 399.363281 636.765625 C 388.214844 607.992188 360.289062 588.617188 329.765625 588.617188 Z M 329.765625 588.617188 " fill-opacity="1" fill-rule="nonzero"/></g></svg>