<svg xmlns="http://www.w3.org/2000/svg" xmlns:xlink="http://www.w3.org/1999/xlink" width="1080" zoomAndPan="magnify" viewBox="0 0 810 1439.999935" height="1920" preserveAspectRatio="xMidYMid meet" version="1.0"><path fill="#ffffff" d="M 405 882 C 315.671875 882 243 809.328125 243 720 C 243 630.671875 315.671875 558 405 558 C 494.328125 558 567 630.671875 567 720 C 567 809.328125 494.328125 882 405 882 Z M 405 571.5 C 323.121094 571.5 256.5 638.121094 256.5 720 C 256.5 801.878906 323.121094 868.5 405 868.5 C 486.878906 868.5 553.5 801.878906 553.5 720 C 553.5 638.121094 486.878906 571.5 405 571.5 Z M 405 571.5 " fill-opacity="1" fill-rule="nonzero"/><path fill="#ffffff" d="M 451.84375 814.539062 C 438.128906 814.539062 424.023438 810.882812 412.75 807.359375 C 390.582031 800.433594 370.101562 788.027344 353.539062 771.460938 C 331.261719 749.1875 316.0625 719.433594 311.851562 689.839844 C 309.960938 676.558594 308.851562 659.558594 317.167969 646.007812 C 324.945312 633.355469 339 625.5 353.863281 625.5 C 356.453125 625.5 358.964844 625.785156 361.382812 626.1875 C 361.503906 626.214844 361.636719 626.230469 361.757812 626.269531 C 370.128906 627.820312 376.757812 634.992188 377.933594 643.777344 L 383.574219 685.964844 C 384.761719 694.875 380.039062 703.691406 372.058594 707.40625 C 371.183594 707.808594 370.292969 708.199219 369.375 708.550781 C 374.085938 718.867188 380.550781 728.167969 388.679688 736.292969 C 396.804688 744.421875 406.105469 750.902344 416.433594 755.613281 C 416.773438 754.707031 417.164062 753.804688 417.554688 752.925781 C 421.28125 744.949219 430.109375 740.195312 439.019531 741.425781 L 481.207031 747.066406 C 490.0625 748.242188 497.285156 754.992188 498.769531 763.46875 C 499.214844 765.996094 499.5 768.519531 499.5 771.125 C 499.5 785.152344 492.65625 798.328125 481.179688 806.371094 C 472.609375 812.394531 462.347656 814.539062 451.84375 814.539062 Z M 353.863281 639 C 343.667969 639 334.003906 644.386719 328.671875 653.066406 C 322.609375 662.949219 323.636719 676.894531 325.214844 687.9375 C 329.023438 714.679688 342.820312 741.652344 363.082031 761.902344 C 378.109375 776.929688 396.671875 788.1875 416.773438 794.453125 C 443.746094 802.863281 462.28125 803.160156 473.429688 795.316406 C 481.179688 789.890625 486 780.601562 486 771.125 C 486 769.273438 485.769531 767.519531 485.488281 765.832031 C 485 763.023438 482.515625 760.835938 479.4375 760.433594 L 437.25 754.777344 C 434.171875 754.4375 431.070312 755.921875 429.839844 758.597656 C 428.785156 760.851562 428.03125 763.308594 427.570312 765.886719 C 427.222656 767.855469 426.019531 769.558594 424.292969 770.570312 C 422.5625 771.554688 420.472656 771.746094 418.609375 771.058594 C 403.703125 765.574219 390.445312 757.085938 379.1875 745.824219 C 367.929688 734.578125 359.4375 721.308594 353.957031 706.390625 C 353.269531 704.515625 353.445312 702.4375 354.441406 700.695312 C 355.441406 698.96875 357.15625 697.765625 359.128906 697.429688 C 361.691406 696.984375 364.148438 696.214844 366.402344 695.160156 C 369.078125 693.917969 370.65625 690.878906 370.238281 687.75 L 364.554688 645.5625 C 364.148438 642.46875 361.949219 639.984375 359.222656 639.527344 C 358.761719 639.433594 358.304688 639.308594 357.871094 639.136719 C 357.464844 639.242188 355.699219 639 353.863281 639 Z M 353.863281 639 " fill-opacity="1" fill-rule="nonzero"/></svg>